HIERARCHY
ROOT Hips
{
	OFFSET -3.958830 18.904000 13.208200
	CHANNELS 6 Xposition Yposition Zposition Zrotation Yrotation Xrotation 
	JOINT LHipJoint
	{
		OFFSET 0.000000 0.000000 0.000000
		CHANNELS 3 Zrotation Yrotation Xrotation
		JOINT LeftUpLeg
		{
			OFFSET 1.800000 -1.400000 0.085000
			CHANNELS 3 Zrotation Yrotation Xrotation
			JOINT LeftLeg
			{
				OFFSET 2.215000 -6.000000 0.000000
				CHANNELS 3 Zrotation Yrotation Xrotation
				JOINT LeftFoot
				{
					OFFSET 2.500000 -6.900000 0.000000
					CHANNELS 3 Zrotation Yrotation Xrotation
					JOINT LeftToeBase
					{
						OFFSET 0.200000 -0.500000 1.950000
						CHANNELS 3 Zrotation Yrotation Xrotation
						End Site
						{
							OFFSET 0.000000 0.000000 0.000000
						}
					}
				}
			}
		}
	}
	JOINT RHipJoint
	{
		OFFSET 0.000000 0.000000 0.000000
		CHANNELS 3 Zrotation Yrotation Xrotation
		JOINT RightUpLeg
		{
			OFFSET -1.800000 -1.400000 0.085000
			CHANNELS 3 Zrotation Yrotation Xrotation
			JOINT RightLeg
			{
				OFFSET -2.215000 -6.000000 0.000000
				CHANNELS 3 Zrotation Yrotation Xrotation
				JOINT RightFoot
				{
					OFFSET -2.500000 -6.900000 0.000000
					CHANNELS 3 Zrotation Yrotation Xrotation
					JOINT RightToeBase
					{
						OFFSET -0.200000 -0.500000 1.950000
						CHANNELS 3 Zrotation Yrotation Xrotation
						End Site
						{
							OFFSET 0.000000 0.000000 0.000000
						}
					}
				}
			}
		}
	}
	JOINT LowerBack
	{
		OFFSET 0.000000 0.000000 0.000000
		CHANNELS 3 Zrotation Yrotation Xrotation
		JOINT Spine
		{
			OFFSET -0.087000 1.940000 -0.288900
			CHANNELS 3 Zrotation Yrotation Xrotation
			JOINT Spine1
			{
				OFFSET 0.000000 1.950000 0.060000
				CHANNELS 3 Zrotation Yrotation Xrotation
				JOINT Neck
				{
					OFFSET 0.000000 0.000000 0.000000
					CHANNELS 3 Zrotation Yrotation Xrotation
					JOINT Neck1
					{
						OFFSET 0.000000 1.600000 0.340000
						CHANNELS 3 Zrotation Yrotation Xrotation
						JOINT Head
						{
							OFFSET 0.000000 1.667000 -0.240000
							CHANNELS 3 Zrotation Yrotation Xrotation
							End Site
							{
								OFFSET 0.000000 0.000000 0.000000
							}
						}
					}
				}
				JOINT LeftShoulder
				{
					OFFSET 0.000000 0.000000 0.000000
					CHANNELS 3 Zrotation Yrotation Xrotation
					JOINT LeftArm
					{
						OFFSET 2.700000 1.550000 -0.730000
						CHANNELS 3 Zrotation Yrotation Xrotation
						JOINT LeftForeArm
						{
							OFFSET 5.450000 0.000000 0.000000
							CHANNELS 3 Zrotation Yrotation Xrotation
							JOINT LeftHand
							{
								OFFSET 3.450000 0.000000 0.000000
								CHANNELS 3 Zrotation Yrotation Xrotation
								JOINT LeftHandIndex1
								{
									OFFSET 0.750000 0.000000 0.000000
									CHANNELS 3 Zrotation Yrotation Xrotation
									End Site
									{
										OFFSET 0.000000 0.000000 0.000000
									}
								}
							}
						}
					}
				}
				JOINT RightShoulder
				{
					OFFSET 0.000000 0.000000 0.000000
					CHANNELS 3 Zrotation Yrotation Xrotation
					JOINT RightArm
					{
						OFFSET -2.700000 1.550000 -0.730000
						CHANNELS 3 Zrotation Yrotation Xrotation
						JOINT RightForeArm
						{
							OFFSET -5.450000 0.000000 0.000000
							CHANNELS 3 Zrotation Yrotation Xrotation
							JOINT RightHand
							{
								OFFSET -3.450000 0.000000 0.000000
								CHANNELS 3 Zrotation Yrotation Xrotation
								JOINT RightHandIndex1
								{
									OFFSET -0.750000 0.000000 0.000000
									CHANNELS 3 Zrotation Yrotation Xrotation
									End Site
									{
										OFFSET 0.000000 0.000000 0.000000
									}
								}
							}
						}
					}
				}
			}
		}
	}
}
MOTION
Frames: 14
Frame Time: 0.016667
0.434030 17.111550 -1.958980 0.766470 6.071160 6.849416 -15.116301 12.216568 3.669796 -0.966863 -7.759620 -24.823573 -4.756180 10.122926 45.279089 0.261476 8.718365 1.883187 -0.370630 -0.706830 -0.601660 18.514522 -10.478447 2.781272 -1.119018 3.483155 -28.439525 5.607240 -5.065939 19.078454 0.437514 -3.142815 3.577321 -0.183800 1.110880 0.056030 -4.101273 -0.683779 -7.225914 9.808636 -0.157710 5.882957 -7.242145 0.464064 -1.334714 1.602329 -4.276352 -3.487942 -7.111937 -2.009898 23.328077 -1.709170 -6.010720 7.904240 -18.510460 10.850273 -3.107994 -61.215797 -8.621734 -2.863727 -8.528050 -45.777184 1.716745 -4.306553 2.959677 0.031090 0.659700 -0.805990 0.239350 14.328678 -7.803476 0.704898 56.378264 -3.048385 -8.062723 6.536074 16.832375 -0.760597 2.065057 -1.267291 -0.549490 0.465500 0.524780 0.005610 
0.455200 16.979010 -1.974260 0.500417 8.075287 6.978116 -15.087551 12.356265 3.368115 -0.969083 -6.761145 -23.048515 -3.703597 8.950909 41.719923 0.069204 7.902560 2.166495 -0.350000 -0.676970 -0.605240 18.540626 -10.380623 3.088368 -1.850312 4.463947 -33.665148 5.982417 -6.654190 27.327750 0.299480 -4.045173 3.219699 -0.159080 1.119210 0.040800 -4.205166 -0.820780 -7.223982 10.875146 -1.128584 6.282270 -8.904605 -0.353539 -1.398184 1.914999 -4.791038 -3.535674 -7.810670 -2.397864 22.528634 -1.458380 -6.789450 7.357480 -19.052544 10.515695 -3.239389 -60.122362 -9.553312 -2.165513 -10.446756 -49.426941 2.954560 -4.275399 3.008500 0.028920 0.654440 -0.812080 0.257460 14.111760 -7.572555 0.932956 56.159350 -3.694973 -7.994477 6.046330 15.009280 -0.883107 2.076733 -1.263656 -0.555990 0.488500 0.512260 0.014800 
0.483010 16.854150 -1.993440 0.553341 10.272511 6.898105 -15.092050 12.380110 3.076861 -1.440592 -6.093590 -21.315732 -2.269521 7.819360 39.120430 -0.054009 7.216900 2.393089 -0.309170 -0.625580 -0.565080 18.572048 -10.078848 3.567748 -4.616283 5.197755 -39.832535 7.848133 -9.688159 36.790834 -0.020291 -5.717101 2.577861 -0.142480 1.070960 0.031770 -4.259172 -1.084747 -7.397840 11.396505 -2.299698 7.392610 -10.392496 -1.313262 -1.768472 2.369385 -5.190545 -3.618136 -8.494169 -2.764204 22.448198 -0.971610 -7.443890 5.957760 -20.240279 10.002334 -3.380363 -58.243853 -10.029013 -1.757306 -13.115213 -54.111357 4.838509 -4.208900 3.061587 0.053220 0.607530 -0.768360 0.255890 14.316679 -7.245055 1.219221 55.318526 -4.575165 -8.074094 5.801707 14.076191 -0.867167 2.102658 -1.236656 -0.534860 0.494720 0.484720 0.014490 
0.497010 16.757480 -2.035350 0.601684 12.114944 5.744934 -15.104878 12.431413 2.854243 -1.379303 -5.643956 -19.227497 -1.754792 7.375995 37.561666 -0.107483 6.790830 2.491376 -0.234630 -0.544560 -0.471150 18.589412 -9.650747 4.135588 -8.442952 5.162043 -45.110324 10.879601 -13.861006 45.035888 -0.490372 -7.606177 1.898797 -0.144100 0.907350 -0.025490 -4.269920 -1.639386 -7.823969 11.663224 -4.106905 10.536170 -11.780280 -2.652849 -2.460468 2.832079 -6.217640 -4.565785 -11.044645 -2.131466 24.770141 0.960310 -8.048000 2.397290 -21.523479 7.930612 -2.806380 -56.465498 -9.614957 -2.914435 -12.893508 -59.934563 5.080539 -4.003754 3.047662 0.194880 0.439840 -0.638580 0.230820 14.671161 -4.757798 2.202817 54.722918 -5.091821 -8.415738 5.421081 13.636940 -0.698826 2.152086 -1.129844 -0.510090 0.505910 0.432280 -0.020780 
0.510540 16.683330 -2.103930 0.384665 13.744791 3.428440 -15.121656 12.508465 2.705217 -1.191573 -5.487876 -16.982882 -1.111780 7.022979 37.383347 -0.084939 6.586836 2.500977 -0.114470 -0.419770 -0.341970 18.588547 -9.233592 4.681552 -12.518870 4.210176 -49.008067 14.205930 -18.524523 51.419162 -1.034679 -9.344839 1.316484 -0.154620 0.694270 -0.046150 -4.248092 -2.268345 -8.344817 11.749407 -6.116355 15.553347 -12.909580 -4.061785 -3.362058 3.553538 -7.319078 -6.043260 -14.585504 -1.198728 29.144387 3.593700 -8.741990 -3.053480 -23.405725 4.655765 -1.988458 -54.438993 -9.186082 -4.771866 -10.196664 -65.870155 3.442234 -3.746785 3.016891 0.387960 0.228890 -0.439500 0.216270 15.249190 -0.900733 3.795742 54.155937 -5.902035 -9.152405 4.747071 14.246011 -0.468610 2.191231 -1.017879 -0.442740 0.493090 0.351960 -0.055010 
0.493210 16.628380 -2.182220 -0.718407 14.701074 -0.280986 -15.140310 12.648441 2.530877 0.231948 -5.339376 -14.319045 -0.699188 7.029374 38.212569 -0.050905 6.657887 2.400333 0.028950 -0.266850 -0.174670 18.565802 -8.934767 5.095404 -15.025408 3.538329 -51.096644 16.353414 -22.609898 57.217462 -1.571484 -10.769554 0.863317 -0.135000 0.457380 -0.060590 -4.189033 -2.789438 -8.734659 11.632417 -7.879118 21.785253 -13.771807 -5.094333 -3.522966 4.552485 -7.902879 -7.762816 -17.967649 0.152064 34.824619 6.015870 -8.569150 -10.147140 -25.867001 0.143527 -1.097227 -51.191216 -9.155847 -7.176979 -4.800554 -71.054293 -0.710228 -3.488082 2.952070 0.596660 0.011100 -0.220190 0.189240 16.002810 3.833730 5.946383 53.506863 -7.397980 -10.642840 5.780830 17.403639 -0.143142 2.178204 -0.924228 -0.382350 0.485050 0.266160 -0.109150 
0.468250 16.580210 -2.262210 -2.175023 15.025120 -4.094910 -15.166706 12.692975 2.420072 2.114729 -5.807108 -12.661493 -0.532888 7.452935 41.099644 0.022428 7.162879 2.146986 0.131980 -0.145700 -0.066900 18.554663 -8.661623 5.362030 -16.369507 3.285801 -52.720574 16.794659 -25.827909 63.095974 -2.009943 -11.986792 0.511872 -0.098620 0.292270 -0.081390 -4.116434 -3.160690 -8.965107 11.144733 -9.400862 27.328345 -14.060418 -5.860340 -2.247752 5.264290 -8.081592 -9.814002 -20.556586 2.154683 39.581406 8.366280 -7.708330 -15.544810 -28.493640 -5.952276 0.557433 -47.730527 -8.491490 -10.772772 7.022499 -76.742856 -11.032686 -3.282213 2.833241 0.741960 -0.136530 -0.079980 0.153430 17.554734 9.891022 8.438964 51.885436 -8.829402 -12.030455 6.544258 20.734901 0.079024 2.120993 -0.872210 -0.349250 0.486950 0.226790 -0.157750 
0.440090 16.538590 -2.341030 -4.072176 14.861682 -7.346673 -15.162239 12.620846 2.358283 4.467606 -6.699849 -12.348417 -0.557171 8.104858 44.918851 0.133841 7.862964 1.845381 0.221760 -0.040330 0.020980 18.585022 -8.458504 5.527393 -16.149102 3.774341 -54.630031 15.219210 -27.922600 69.573728 -2.390403 -13.062619 0.219010 -0.061860 0.185650 -0.072270 -4.138089 -3.257630 -9.099770 11.450781 -10.734627 31.888108 -14.683280 -6.212851 -0.792527 5.700363 -7.782957 -11.363478 -21.625709 3.282724 42.699519 10.238940 -6.936000 -19.462850 -30.873706 -11.409635 1.763710 -43.524761 -8.215497 -13.678253 20.884337 -80.211217 -23.477754 -3.148756 2.641943 0.832760 -0.229010 0.025740 0.134660 19.180551 14.867319 10.666281 50.288621 -10.897284 -13.623142 7.436587 24.760595 0.281325 2.046085 -0.868932 -0.311670 0.482590 0.192600 -0.183760 
0.412330 16.497740 -2.400520 -5.662782 14.933101 -9.941698 -15.154501 12.515265 2.370265 6.549656 -7.765420 -12.472346 -0.662227 8.795821 48.802545 0.223753 8.611851 1.549943 0.277230 0.018490 0.080790 18.610912 -8.358585 5.560811 -15.354239 4.157658 -55.792285 13.093397 -29.096081 74.875287 -2.661804 -13.851081 0.021299 -0.029130 0.128070 -0.069690 -4.169584 -3.226674 -9.186518 11.468364 -11.822957 35.586422 -15.211008 -6.513184 0.181831 5.885046 -7.213019 -12.175992 -21.489977 3.677758 44.616335 11.460080 -6.146980 -22.357710 -32.355631 -14.993682 2.233207 -39.521575 -8.274648 -15.169509 30.296016 -82.247983 -31.959958 -3.097895 2.435045 0.910120 -0.279530 0.086750 0.119810 20.274850 17.717170 12.115242 49.031816 -12.890804 -15.027463 9.078724 28.408722 0.605574 1.960623 -0.870201 -0.312780 0.496980 0.180860 -0.215600 
0.401540 16.463380 -2.435710 -6.982495 14.634010 -11.898235 -15.106857 12.406865 2.400611 8.405655 -8.489039 -12.568682 -1.119593 9.544355 51.433852 0.333119 9.153107 1.336955 0.312810 0.068060 0.118580 18.656729 -8.434549 5.469011 -14.073841 4.584855 -55.729796 10.748523 -29.238094 78.680340 -2.821354 -14.291789 -0.091787 -0.013200 0.082970 -0.060440 -4.297982 -2.960487 -9.201584 12.222045 -12.821120 38.048609 -16.425542 -6.578633 0.833071 5.986570 -6.655045 -12.797626 -21.139856 3.758986 45.875520 12.516350 -5.732890 -23.753530 -33.358838 -17.552600 2.431502 -35.529266 -8.386183 -15.648917 29.521296 -83.188228 -31.658375 -3.070365 2.483395 0.932220 -0.312180 0.131950 0.107040 20.963946 19.502813 13.246028 48.413511 -15.224202 -16.556021 11.903314 31.917629 1.122451 1.912860 -0.903086 -0.286920 0.485110 0.164380 -0.221020 
0.401210 16.434260 -2.451700 -7.684334 14.245022 -13.143871 -15.060483 12.331387 2.470669 9.252881 -9.006014 -12.692064 -1.383447 10.051675 53.459197 0.414420 9.563903 1.188987 0.325640 0.088230 0.127270 18.691707 -8.607000 5.283027 -12.623232 4.857245 -54.785740 8.091857 -28.281223 81.143348 -2.867406 -14.403915 -0.114168 -0.004280 0.076160 -0.054200 -4.418367 -2.665154 -9.170286 12.766260 -13.476037 39.333249 -17.601134 -6.626564 1.385924 6.016008 -6.266140 -13.180194 -20.808712 3.765717 46.431956 13.071450 -5.461060 -24.018910 -33.233335 -19.006681 2.354769 -33.049070 -8.788575 -15.927658 32.811750 -83.890561 -34.405878 -3.075019 2.407581 0.939050 -0.314450 0.145290 0.104000 20.685092 20.357500 13.952083 48.002647 -16.887996 -17.668319 16.207034 34.602651 1.969922 1.874598 -0.941298 -0.279210 0.486120 0.163530 -0.222830 
0.407020 16.416630 -2.435240 -7.604568 14.301255 -13.849915 -15.037933 12.383581 2.546938 9.043392 -9.254520 -12.305131 -1.294823 10.081963 54.405295 0.450768 9.738225 1.146265 0.304960 0.075320 0.114720 18.680089 -8.855673 5.012301 -11.683077 4.449556 -52.455337 6.323308 -27.138311 81.595689 -2.823134 -14.238450 -0.063855 -0.005460 0.099530 -0.066780 -4.458156 -2.524691 -9.095568 12.465070 -13.588236 39.414311 -18.372843 -6.838866 2.061733 6.194019 -5.972200 -13.529411 -20.575438 3.946640 46.925038 12.526360 -5.208980 -23.065300 -32.017010 -19.296343 2.431268 -32.465584 -9.286093 -15.640034 27.010775 -83.585893 -29.662156 -3.089366 2.510374 0.933930 -0.295370 0.135570 0.103590 19.133149 20.236337 14.191277 48.129132 -17.952544 -18.611344 22.025619 36.696309 3.199931 1.854433 -0.972262 -0.297400 0.514720 0.175860 -0.222520 
0.400880 16.408460 -2.394190 -7.129215 14.331841 -13.873492 -15.021847 12.507764 2.627804 8.732260 -9.127415 -11.888215 -1.398769 10.107913 54.253699 0.480363 9.742224 1.161119 0.273300 0.046260 0.082230 18.643002 -9.174588 4.691503 -10.309717 4.132320 -49.422404 5.055880 -25.268625 79.945127 -2.667609 -13.732274 0.069527 -0.024920 0.134480 -0.059950 -4.460000 -2.393656 -8.987895 11.861869 -13.064023 38.536046 -18.841559 -6.821325 2.274249 6.258276 -5.642840 -13.387248 -19.635186 3.586192 46.693850 11.966650 -5.272130 -20.993600 -30.420497 -18.165701 2.141149 -32.991233 -9.956540 -14.852274 23.744662 -83.608019 -26.978848 -3.125823 2.582463 0.891840 -0.253980 0.103720 0.105450 17.427129 18.819903 14.048355 47.806110 -18.961098 -18.860201 29.575800 37.717375 4.834375 1.862703 -1.047656 -0.292930 0.502590 0.188730 -0.210010 
0.394730 16.407230 -2.335200 -6.264015 14.582041 -13.233462 -15.028511 12.687210 2.763606 7.934966 -9.041297 -11.778688 -1.546251 10.033068 53.851923 0.477847 9.747649 1.186224 0.192500 -0.057310 0.006800 18.579072 -9.503892 4.284003 -9.005056 3.378719 -45.723927 4.286131 -23.053084 76.146533 -2.389203 -12.905333 0.276295 -0.066210 0.219350 -0.043870 -4.399013 -2.421969 -8.835005 10.994513 -12.465498 36.650869 -18.997102 -6.986162 2.414207 6.327245 -5.973460 -13.003890 -19.661990 3.357534 44.887438 11.030760 -5.857130 -18.083340 -28.289515 -15.835886 1.649390 -34.854486 -10.916395 -13.587458 18.410856 -82.824466 -22.309668 -3.216739 2.674399 0.840110 -0.182640 0.028420 0.098690 15.251721 16.648079 13.616820 46.686479 -19.496886 -18.286652 38.655656 37.814426 6.889325 1.866920 -1.135342 -0.317330 0.499620 0.248490 -0.195780 
